<?xml version="1.0" encoding="iso-8859-1"?>
<!-- Generator: Adobe Illustrator 19.0.0, SVG Export Plug-In . SVG Version: 6.00 Build 0)  -->
<svg version="1.1" id="Capa_1" xmlns="http://www.w3.org/2000/svg" xmlns:xlink="http://www.w3.org/1999/xlink" x="0px" y="0px"
	 viewBox="0 0 512.006 512.006" style="enable-background:new 0 0 512.006 512.006;" xml:space="preserve">
<g>
	<g>
		<g>
			<path d="M380.851,250.179c-2.996-0.587-6.078,0.472-8.081,2.777h0c-3.708,4.246-7.456,8.472-11.242,12.679
				c-3.139,3.508-2.846,8.896,0.657,12.042s8.891,2.863,12.043-0.634c3.833-4.267,7.631-8.554,11.392-12.862
				c2.015-2.294,2.65-5.49,1.666-8.381S383.847,250.766,380.851,250.179z"/>
			<path d="M195.771,425.197c-2.811-1.182-6.039-0.776-8.468,1.067h0c-4.508,3.421-9.031,6.801-13.567,10.142
				c-2.456,1.804-3.763,4.782-3.429,7.811s2.259,5.65,5.05,6.875c2.791,1.225,6.023,0.868,8.479-0.936
				c4.617-3.388,9.211-6.818,13.783-10.292c2.429-1.843,3.691-4.842,3.31-7.867C200.549,428.972,198.582,426.38,195.771,425.197z"/>
			<path d="M227.162,394.698L227.162,394.698c-4.359,3.604-8.737,7.171-13.134,10.7c-3.677,2.95-4.267,8.323-1.317,12
				c2.95,3.677,8.323,4.267,12,1.316c4.467-3.583,8.911-7.206,13.333-10.867c3.61-3.011,4.105-8.374,1.108-11.996
				C236.156,392.231,230.795,391.715,227.162,394.698z"/>
			<path d="M413.386,210.897c-3.015-0.465-6.048,0.714-7.957,3.093h0c-3.533,4.396-7.103,8.778-10.708,13.146
				c-1.94,2.352-2.477,5.56-1.41,8.416c1.067,2.856,3.577,4.925,6.583,5.429c3.007,0.504,6.054-0.635,7.994-2.987
				c3.65-4.425,7.264-8.862,10.842-13.313c1.913-2.375,2.413-5.592,1.311-8.436C418.937,213.401,416.4,211.362,413.386,210.897z"/>
			<path d="M444.252,170.27c-3.035-0.337-6.019,0.973-7.824,3.437c-3.35,4.542-6.733,9.069-10.15,13.583
				c-1.856,2.428-2.27,5.664-1.087,8.482c1.183,2.818,3.784,4.787,6.817,5.163c3.033,0.375,6.035-0.9,7.87-3.345
				c3.467-4.575,6.894-9.161,10.283-13.758c1.819-2.453,2.189-5.691,0.969-8.49S447.287,170.608,444.252,170.27z"/>
			<path d="M274.067,359.676c-2.917-0.944-6.116-0.25-8.38,1.817v0c-4.217,3.783-8.447,7.532-12.692,11.246
				c-3.517,3.11-3.862,8.476-0.772,12.01c3.09,3.534,8.454,3.909,12.005,0.84c4.3-3.763,8.586-7.561,12.858-11.396
				c2.299-2.029,3.333-5.135,2.708-8.136C279.171,363.056,276.984,360.62,274.067,359.676z"/>
			<path d="M302.812,326.748L302.812,326.748c-4.05,3.954-8.122,7.87-12.217,11.746c-2.214,2.096-3.141,5.214-2.432,8.179
				c0.708,2.965,2.945,5.327,5.867,6.196c2.922,0.869,6.086,0.113,8.299-1.983c4.159-3.938,8.292-7.908,12.4-11.913
				c3.37-3.292,3.437-8.691,0.148-12.065C311.588,323.535,306.188,323.463,302.812,326.748z"/>
			<path d="M346.725,288.121c-2.964-0.71-6.083,0.215-8.18,2.427c-3.883,4.092-7.8,8.165-11.75,12.221
				c-3.288,3.378-3.216,8.783,0.163,12.071s8.783,3.216,12.071-0.163c4-4.113,7.967-8.242,11.9-12.388
				c2.097-2.212,2.856-5.375,1.989-8.298C352.05,291.07,349.69,288.832,346.725,288.121z"/>
			<path d="M172.978,197.327c-4,4.112-7.967,8.242-11.9,12.388c-2.348,2.474-2.997,6.109-1.65,9.242
				c1.347,3.134,4.431,5.164,7.842,5.162l0,0c2.343,0.004,4.583-0.959,6.192-2.662c3.883-4.092,7.8-8.165,11.75-12.221
				c3.289-3.378,3.216-8.783-0.163-12.071C181.671,193.876,176.267,193.949,172.978,197.327z"/>
			<path d="M116.132,272.856c-3.636-2.998-9.014-2.482-12.013,1.154c-3.65,4.425-7.264,8.862-10.842,13.313
				c-2.058,2.558-2.466,6.069-1.049,9.031s4.408,4.847,7.69,4.849l0,0c2.589,0.006,5.04-1.167,6.658-3.188
				c3.533-4.396,7.103-8.778,10.708-13.146C120.285,281.233,119.768,275.855,116.132,272.856z"/>
			<path d="M149.822,234.327c-3.502-3.146-8.891-2.863-12.043,0.634c-3.833,4.267-7.631,8.554-11.392,12.862
				c-2.205,2.519-2.732,6.096-1.348,9.144s4.425,5.005,7.773,5.002l0,0c2.464,0.004,4.808-1.062,6.425-2.921
				c3.708-4.246,7.456-8.472,11.242-12.679C153.618,242.86,153.324,237.473,149.822,234.327z"/>
			<path d="M279.411,119.265L279.411,119.265c1.984,0.001,3.906-0.692,5.434-1.958c4.358-3.604,8.736-7.171,13.133-10.7
				c3.677-2.95,4.267-8.323,1.316-12c-2.95-3.677-8.323-4.267-12-1.316c-4.467,3.583-8.911,7.206-13.333,10.867
				c-2.774,2.295-3.809,6.084-2.588,9.471S275.811,119.269,279.411,119.265z"/>
			<path d="M79.998,311.07c-3.033-0.375-6.035,0.9-7.87,3.345c-3.467,4.575-6.894,9.161-10.283,13.758
				c-1.909,2.59-2.198,6.033-0.749,8.906c1.449,2.872,4.39,4.686,7.608,4.69l0,0c2.714,0.007,5.269-1.282,6.875-3.471
				c3.35-4.542,6.733-9.069,10.15-13.583c1.855-2.428,2.27-5.664,1.087-8.482C85.631,313.415,83.031,311.446,79.998,311.07z"/>
			<path d="M221.741,161.448c-3.24-3.422-8.641-3.569-12.063-0.329c-4.159,3.938-8.292,7.908-12.4,11.913
				c-2.483,2.425-3.251,6.111-1.944,9.326c1.308,3.215,4.431,5.318,7.902,5.32v0c2.226,0.004,4.366-0.865,5.958-2.421
				c4.05-3.954,8.122-7.869,12.217-11.746C224.833,170.27,224.981,164.87,221.741,161.448z"/>
			<path d="M240.62,152.694L240.62,152.694c2.105,0.003,4.136-0.775,5.7-2.184c4.217-3.783,8.447-7.532,12.692-11.246
				c3.528-3.107,3.879-8.482,0.785-12.021c-3.094-3.539-8.468-3.91-12.018-0.828c-4.3,3.763-8.586,7.561-12.858,11.396
				c-2.631,2.362-3.533,6.101-2.268,9.402C233.916,150.514,237.085,152.694,240.62,152.694z"/>
			<path d="M319.553,87.473L319.553,87.473c1.86,0,3.669-0.609,5.15-1.733c4.508-3.421,9.031-6.801,13.567-10.142
				c2.456-1.804,3.763-4.782,3.429-7.811c-0.334-3.029-2.26-5.65-5.05-6.875c-2.791-1.225-6.023-0.868-8.479,0.936
				c-4.617,3.388-9.211,6.818-13.783,10.292c-2.922,2.215-4.102,6.05-2.931,9.525C312.626,85.139,315.886,87.478,319.553,87.473z"/>
			<path d="M460.038,101.473c-0.504-1.147-1.259-2.167-2.209-2.984c-0.052-0.044-0.119-0.051-0.172-0.093
				c-6.398-8.214-13.29-16.032-20.636-23.411c-7.371-7.34-15.177-14.231-23.375-20.636l-0.051-0.093
				c-0.782-0.92-1.754-1.66-2.847-2.171C308.855-25.258,165.508-15.5,75.036,74.936S-25.25,308.716,52.052,410.638
				c0.506,1.136,1.258,2.145,2.201,2.955c0.047,0.04,0.107,0.05,0.155,0.089c6.382,8.187,13.254,15.98,20.579,23.336
				c7.391,7.36,15.219,14.268,23.441,20.688l0.068,0.125c0.821,0.978,1.852,1.759,3.016,2.284
				c101.921,77.162,245.145,67.296,335.524-23.111C527.413,346.597,537.232,203.369,460.038,101.473z M49.203,375.645
				c2.214-3.263,4.421-6.529,6.676-9.776c2.67-3.87,1.706-9.172-2.156-11.854s-9.166-1.734-11.86,2.12
				c-0.555,0.799-1.089,1.603-1.641,2.402c-43.265-91.308-24.524-199.95,46.832-271.485C158.591,15.609,267.307-3.172,358.668,40.13
				c-0.845,0.583-1.695,1.149-2.54,1.735c-2.517,1.733-3.915,4.681-3.664,7.727c0.251,3.046,2.111,5.725,4.878,7.024
				s6.016,1.019,8.52-0.734c3.269-2.268,6.554-4.49,9.836-6.717c5.975,3.471,11.804,7.212,17.485,11.224
				c-58.67,49.59-116.936,103.125-173.304,159.489c-56.35,56.35-109.876,114.613-159.461,173.277
				C56.408,387.443,52.653,381.611,49.203,375.645z M70.923,407.115c49.967-59.297,104.059-118.209,161.021-175.171
				c56.966-56.97,115.889-111.06,175.185-161.03c3.983,3.264,7.845,6.711,11.643,10.252l-337.6,337.6
				C77.626,414.958,74.176,411.092,70.923,407.115z M93.233,430.839l337.6-337.6c3.573,3.835,7.048,7.727,10.321,11.734h0
				c-49.92,59.249-104.009,118.158-161.018,175.167c-56.947,56.947-115.852,111.039-175.168,161.022
				C100.954,437.876,97.059,434.406,93.233,430.839z M424.953,424.952c-71.538,71.443-180.254,90.224-271.615,46.922
				c0.845-0.583,1.695-1.149,2.54-1.735c3.85-2.695,4.795-7.996,2.115-11.856s-7.977-4.826-11.848-2.161
				c-3.269,2.268-6.554,4.49-9.836,6.717c-5.942-3.452-11.738-7.171-17.389-11.157c58.681-49.604,116.942-103.132,173.283-159.477
				c56.392-56.396,109.914-114.649,159.451-173.263c3.983,5.681,7.718,11.482,11.149,17.417c-2.214,3.263-4.421,6.529-6.675,9.776
				c-1.746,2.504-2.021,5.749-0.722,8.511c1.299,2.762,3.974,4.62,7.016,4.872c3.042,0.252,5.986-1.139,7.723-3.65
				c0.555-0.798,1.089-1.603,1.641-2.402C515.05,244.775,496.309,353.417,424.953,424.952z"/>
		</g>
	</g>
</g>
<g>
</g>
<g>
</g>
<g>
</g>
<g>
</g>
<g>
</g>
<g>
</g>
<g>
</g>
<g>
</g>
<g>
</g>
<g>
</g>
<g>
</g>
<g>
</g>
<g>
</g>
<g>
</g>
<g>
</g>
</svg>
